<svg width="64" height="64" viewBox="0 0 64 64" fill="none" xmlns="http://www.w3.org/2000/svg">
  <rect width="64" height="64" rx="12" fill="#0078D4"/>
  <path d="M21 38.5C21 33.8 24.8 30 29.5 30C30.9 30 32.2 30.3 33.4 31C34.9 28.5 37.7 27 40.8 27C45.5 27 49.3 30.8 49.3 35.5C49.3 35.6 49.3 35.7 49.3 35.8C51.5 36.5 53 38.5 53 40.9C53 43.9 50.6 46.3 47.6 46.3H24.6C21.5 46.3 19 43.8 19 40.7C19 39.7 19.3 38.9 19.8 38.1C20.2 38.3 20.6 38.5 21 38.5Z" fill="white"/>
  <path d="M19.2 38.4C19.8 35.1 22.7 32.6 26.2 32.6C27.2 32.6 28.2 32.8 29.1 33.2C30.4 31.2 32.7 30 35.2 30C39.2 30 42.4 33.2 42.4 37.2C42.4 37.3 42.4 37.4 42.4 37.4C44.2 38 45.4 39.7 45.4 41.7C45.4 44.1 43.5 46 41.1 46H22.9C20.2 46 18 43.8 18 41.1C18 40.1 18.4 39.1 19.2 38.4Z" fill="#BDE3FF"/>
</svg>
